<?xml version="1.0" standalone="no"?>
<!DOCTYPE svg PUBLIC "-//W3C//DTD SVG 20010904//EN"
 "http://www.w3.org/TR/2001/REC-SVG-20010904/DTD/svg10.dtd">
<svg version="1.0" xmlns="http://www.w3.org/2000/svg"
 width="500.000000pt" height="500.000000pt" viewBox="0 0 500.000000 500.000000"
 preserveAspectRatio="xMidYMid meet">

<g transform="translate(0.000000,500.000000) scale(0.100000,-0.100000)"
fill="#000000" stroke="none">
<path d="M2380 4476 c0 -12 22 -15 104 -18 121 -4 136 -2 136 18 0 11 -23 14
-120 14 -98 0 -120 -3 -120 -14z"/>
<path d="M2190 4416 c0 -25 -5 -35 -20 -39 -19 -5 -20 -14 -20 -141 0 -129 -1
-136 -20 -136 -19 0 -20 -7 -20 -135 l0 -135 -36 0 c-28 0 -37 -5 -41 -20 -5
-19 -12 -21 -82 -18 l-76 3 -1 105 c-2 173 1 160 -38 160 -26 0 -36 -5 -41
-20 -5 -15 -15 -20 -41 -20 -22 0 -34 -5 -34 -14 0 -16 -21 -26 -56 -26 l-24
0 0 -310 0 -310 40 0 c33 0 40 -3 40 -20 0 -17 7 -20 40 -20 33 0 40 -3 40
-20 0 -16 7 -20 35 -20 l35 0 2 63 c1 34 3 87 3 117 l0 55 73 3 c67 3 74 1 79
-18 3 -11 14 -20 24 -20 18 0 19 -11 19 -234 0 -225 -1 -234 -20 -239 -11 -3
-20 -12 -20 -20 0 -8 -9 -17 -20 -20 -17 -4 -20 -14 -20 -61 0 -49 -2 -56 -20
-56 -19 0 -20 -7 -20 -154 0 -147 -1 -154 -21 -159 -18 -5 -20 -12 -19 -84 2
-111 2 -110 -20 -116 -11 -3 -20 -12 -20 -21 0 -11 -9 -16 -31 -16 -17 0 -38
-8 -47 -18 -14 -15 -31 -17 -104 -14 -66 3 -88 7 -88 17 0 9 -14 15 -37 17
l-38 3 -3 313 -2 312 -36 0 c-27 0 -37 -5 -41 -20 -4 -15 -14 -20 -37 -20 -20
0 -35 -7 -44 -20 -8 -13 -23 -20 -42 -20 -19 0 -30 -5 -30 -14 0 -16 -21 -26
-56 -26 -15 0 -24 -6 -24 -16 0 -9 -9 -18 -20 -21 -19 -5 -20 -14 -20 -218 0
-204 -1 -213 -20 -218 -19 -5 -20 -14 -20 -271 0 -230 -2 -266 -15 -266 -8 0
-15 -1 -16 -2 -5 -17 -9 -390 -4 -423 6 -45 6 -45 47 -45 22 0 55 -8 72 -18
17 -10 50 -25 73 -32 24 -7 57 -26 75 -42 17 -15 38 -28 47 -28 8 0 23 -7 33
-16 10 -10 41 -19 68 -22 l51 -5 -3 332 -3 332 23 6 c12 3 22 11 22 18 0 19
24 25 100 25 77 0 100 -6 100 -25 0 -9 14 -15 38 -17 l37 -3 3 -189 c2 -145 6
-192 16 -200 9 -7 16 -46 20 -118 l6 -108 40 -40 c69 -69 96 -77 267 -85 115
-6 153 -11 157 -21 8 -21 222 -20 233 1 7 11 44 16 177 21 126 5 169 11 173
21 3 7 10 13 15 13 11 0 68 55 68 66 0 4 7 12 15 18 11 8 17 39 22 116 5 79
10 108 22 117 14 10 16 39 16 200 l0 188 35 3 c20 2 40 12 48 23 11 16 25 19
87 19 82 0 105 -6 105 -26 0 -8 9 -14 19 -14 30 0 51 -11 51 -26 0 -8 -7 -14
-15 -14 -13 0 -15 -42 -15 -316 l0 -317 50 5 c28 3 58 12 68 22 10 9 26 16 35
16 10 0 27 11 39 25 12 14 29 25 39 25 10 0 24 6 32 14 8 8 30 18 50 21 20 4
38 13 41 21 3 9 21 14 50 14 25 0 47 4 51 9 3 6 7 105 8 222 3 202 2 214 -17
233 -19 19 -20 31 -19 274 2 239 1 254 -18 270 -18 15 -19 31 -19 219 0 192
-1 203 -20 213 -11 6 -20 17 -20 25 0 10 -11 15 -36 15 -27 0 -37 5 -41 20 -4
15 -14 20 -40 20 -26 0 -36 5 -40 20 -4 15 -14 20 -38 20 -24 0 -34 5 -38 20
-4 15 -14 20 -41 20 l-36 0 -2 -312 -3 -313 -37 -3 c-25 -2 -38 -8 -38 -18 0
-21 -188 -21 -196 1 -4 9 -19 15 -40 15 -24 0 -34 4 -34 16 0 9 -9 18 -20 21
-23 6 -22 2 -22 112 0 74 -2 84 -19 88 -18 5 -19 17 -19 159 0 147 -1 154 -20
154 -18 0 -20 7 -20 56 0 47 -3 57 -20 61 -11 3 -20 14 -20 24 0 12 -7 19 -20
19 -19 0 -20 7 -20 235 0 223 1 235 19 235 10 0 21 9 24 20 5 19 12 21 79 18
l73 -3 3 -117 3 -118 33 0 c25 0 35 5 39 20 4 15 14 20 41 20 29 0 36 4 36 20
0 17 7 20 40 20 l40 0 0 309 0 308 -40 7 c-26 4 -40 11 -40 21 0 10 -11 15
-34 15 -26 0 -36 5 -41 20 -5 15 -15 20 -41 20 l-34 0 0 -135 0 -135 -80 0
c-73 0 -80 2 -80 20 0 17 -7 20 -40 20 l-40 0 0 135 c0 128 -1 135 -20 135
-19 0 -20 7 -20 136 0 127 -1 136 -20 141 -15 4 -20 14 -20 39 l0 34 -95 0
c-88 0 -95 -1 -95 -20 0 -19 -7 -20 -120 -20 -113 0 -120 1 -120 20 0 19 -7
20 -95 20 l-95 0 0 -34z m153 -16 c3 -11 12 -20 21 -20 12 0 16 -10 16 -40 0
-33 -3 -40 -20 -40 -16 0 -20 7 -20 35 0 33 -2 35 -32 35 -47 0 -78 10 -78 25
0 16 20 22 71 24 29 1 38 -3 42 -19z m411 14 c9 -3 16 -12 16 -19 0 -15 -31
-25 -77 -25 -31 0 -33 -2 -33 -35 0 -28 -4 -35 -20 -35 -17 0 -20 7 -20 39 0
30 4 40 20 44 11 3 20 12 20 21 0 12 10 16 39 16 22 0 46 -3 55 -6z m-526 -57
c2 -12 -3 -17 -17 -17 -15 0 -21 6 -21 21 0 25 33 22 38 -4z m580 0 c2 -12 -3
-17 -17 -17 -12 0 -21 6 -21 13 0 31 32 34 38 4z m-38 -432 c0 -8 -7 -15 -16
-15 -8 0 -12 5 -9 10 3 6 -3 10 -14 10 -10 0 -22 -6 -24 -12 -3 -8 -6 -6 -6 5
-1 13 7 17 34 17 24 0 35 -5 35 -15z m40 -41 c0 -8 -9 -14 -20 -14 -22 0 -28
26 -7 33 16 6 27 -1 27 -19z m-590 1 c0 -8 -7 -15 -15 -15 -8 0 -15 7 -15 15
0 8 7 15 15 15 8 0 15 -7 15 -15z m470 6 c0 -6 -5 -13 -12 -17 -7 -4 -8 -3 -4
4 5 8 -1 12 -18 12 -13 0 -27 -6 -29 -12 -3 -8 -6 -6 -6 5 -1 13 7 17 34 17
19 0 35 -4 35 -9z m77 -53 c-3 -8 -6 -5 -6 6 -1 11 2 17 5 13 3 -3 4 -12 1
-19z m-547 -28 c0 -11 -7 -20 -15 -20 -8 0 -15 9 -15 20 0 11 7 20 15 20 8 0
15 -9 15 -20z m590 0 c0 -13 -7 -20 -20 -20 -19 0 -27 20 -13 33 13 14 33 6
33 -13z m160 -40 c0 -16 8 -19 57 -22 58 -3 85 -24 44 -35 -28 -7 -28 -43 -1
-43 12 0 20 -7 20 -16 0 -9 -9 -18 -20 -21 -11 -3 -20 -14 -20 -24 0 -12 7
-19 20 -19 11 0 20 -7 20 -15 0 -12 -13 -15 -60 -15 -44 0 -60 4 -60 14 0 7 9
16 20 19 11 3 20 12 20 21 0 9 -8 16 -20 16 -13 0 -20 7 -20 20 0 13 7 20 20
20 13 0 20 7 20 20 0 13 -7 20 -20 20 -11 0 -20 6 -20 14 0 8 -9 18 -20 21
-11 3 -20 15 -20 26 0 12 7 19 20 19 13 0 20 -7 20 -20z m-203 -12 c-3 -8 -6
-5 -6 6 -1 11 2 17 5 13 3 -3 4 -12 1 -19z m-737 -28 c0 -13 -7 -20 -20 -20
-13 0 -20 -7 -20 -20 0 -13 7 -20 20 -20 13 0 20 -7 20 -20 0 -13 -7 -20 -20
-20 -12 0 -20 -7 -20 -16 0 -9 9 -18 20 -21 11 -3 20 -12 20 -19 0 -10 -16
-14 -60 -14 -47 0 -60 3 -60 15 0 8 9 15 20 15 13 0 20 7 20 19 0 10 -9 21
-20 24 -11 3 -20 12 -20 21 0 9 8 16 20 16 13 0 20 7 20 20 0 13 -7 20 -20 20
-13 0 -20 7 -20 20 0 18 7 20 60 20 53 0 60 -2 60 -20z m190 0 c0 -11 -7 -20
-15 -20 -8 0 -15 9 -15 20 0 11 7 20 15 20 8 0 15 -9 15 -20z m590 0 c0 -11
-6 -20 -14 -20 -18 0 -29 16 -21 30 11 18 35 11 35 -10z m-40 -38 c0 -12 -3
-12 -15 -2 -8 7 -15 13 -15 15 0 1 7 2 15 2 8 0 15 -7 15 -15z m-550 -37 c0
-8 -7 -15 -15 -15 -8 0 -15 7 -15 15 0 8 7 15 15 15 8 0 15 -7 15 -15z m590
-6 c0 -25 -33 -22 -38 4 -2 12 3 17 17 17 15 0 21 -6 21 -21z m-40 -36 c0 -10
-4 -14 -8 -8 -4 6 -11 13 -16 18 -5 4 -2 7 7 7 10 0 17 -8 17 -17z m-550 -38
c0 -8 -7 -15 -15 -15 -8 0 -15 7 -15 15 0 8 7 15 15 15 8 0 15 -7 15 -15z
m590 0 c0 -8 -9 -15 -20 -15 -11 0 -20 7 -20 15 0 8 9 15 20 15 11 0 20 -7 20
-15z m-40 -40 c0 -8 -8 -15 -17 -15 -15 0 -15 2 -4 9 11 7 9 10 -10 14 -23 4
-22 4 4 6 18 1 27 -4 27 -14z m-550 -40 c0 -8 -7 -15 -15 -15 -8 0 -15 7 -15
15 0 8 7 15 15 15 8 0 15 -7 15 -15z m590 0 c0 -8 -8 -15 -18 -15 -10 0 -19 7
-19 15 0 8 9 15 19 15 10 0 18 -7 18 -15z m-40 -42 c0 -10 -4 -14 -8 -8 -4 6
-11 13 -16 18 -5 4 -2 7 7 7 10 0 17 -8 17 -17z m-550 -33 c0 -11 -7 -20 -15
-20 -27 0 -18 30 13 39 1 1 2 -8 2 -19z m590 0 c0 -13 -7 -20 -20 -20 -19 0
-27 20 -13 33 13 14 33 6 33 -13z m-183 -12 c-3 -8 -6 -5 -6 6 -1 11 2 17 5
13 3 -3 4 -12 1 -19z m143 -33 c0 -8 -4 -15 -10 -15 -5 0 -7 7 -4 15 4 8 8 15
10 15 2 0 4 -7 4 -15z m-550 -35 c0 -11 -7 -20 -15 -20 -8 0 -15 9 -15 20 0
11 7 20 15 20 8 0 15 -9 15 -20z m590 0 c0 -13 -7 -20 -20 -20 -12 0 -20 -7
-20 -17 0 -9 -3 -13 -6 -10 -11 10 17 67 32 67 8 0 14 -9 14 -20z m-94 -349
c-4 -5 -1 -12 4 -14 6 -3 5 -4 -2 -3 -15 3 -23 26 -8 26 6 0 9 -4 6 -9z m51
-13 c-3 -8 -6 -5 -6 6 -1 11 2 17 5 13 3 -3 4 -12 1 -19z m-547 -28 c0 -11 -7
-20 -15 -20 -8 0 -15 9 -15 20 0 11 7 20 15 20 8 0 15 -9 15 -20z m590 0 c0
-13 -7 -20 -20 -20 -12 0 -20 -7 -21 -17 0 -10 -3 -13 -5 -7 -8 18 14 64 31
64 8 0 15 -9 15 -20z m-590 -80 c0 -11 -7 -20 -15 -20 -8 0 -15 9 -15 20 0 11
7 20 15 20 8 0 15 -9 15 -20z m590 0 c0 -23 -25 -27 -33 -6 -7 16 1 26 20 26
7 0 13 -9 13 -20z m-43 -42 c-3 -8 -6 -5 -6 6 -1 11 2 17 5 13 3 -3 4 -12 1
-19z m-547 -33 c0 -8 -7 -15 -15 -15 -8 0 -15 7 -15 15 0 8 7 15 15 15 8 0 15
-7 15 -15z m590 -6 c0 -25 -33 -22 -38 4 -2 12 3 17 17 17 15 0 21 -6 21 -21z
m-40 -36 c0 -10 -4 -14 -8 -8 -4 6 -11 13 -16 18 -5 4 -2 7 7 7 10 0 17 -8 17
-17z m-550 -38 c0 -8 -7 -15 -15 -15 -8 0 -15 7 -15 15 0 8 7 15 15 15 8 0 15
-7 15 -15z m590 0 c0 -8 -9 -15 -20 -15 -11 0 -20 7 -20 15 0 8 9 15 20 15 11
0 20 -7 20 -15z m-40 -40 c0 -8 -8 -15 -17 -14 -13 0 -14 2 -4 6 11 5 11 7 0
14 -11 7 -10 9 4 9 9 0 17 -7 17 -15z m40 -37 c0 -11 -7 -18 -20 -18 -18 0
-27 19 -15 32 12 12 35 3 35 -14z m-590 -3 c0 -8 -7 -15 -15 -15 -8 0 -15 7
-15 15 0 8 7 15 15 15 8 0 15 -7 15 -15z m414 0 c3 -8 1 -15 -4 -15 -6 0 -10
7 -10 15 0 8 2 15 4 15 2 0 6 -7 10 -15z m56 -11 c0 -2 -9 -4 -20 -4 -11 0
-20 4 -20 9 0 5 9 7 20 4 11 -3 20 -7 20 -9z m17 -36 c-3 -8 -6 -5 -6 6 -1 11
2 17 5 13 3 -3 4 -12 1 -19z m63 7 c0 -8 -7 -15 -15 -15 -13 0 -14 3 -3 15 16
18 18 18 18 0z m78 -192 c-2 -13 -14 -19 -41 -21 -32 -3 -37 0 -37 17 0 18 6
21 41 21 33 0 40 -3 37 -17z m-941 -109 c-3 -3 -12 -4 -19 -1 -8 3 -5 6 6 6
11 1 17 -2 13 -5z m1210 0 c-3 -3 -12 -4 -19 -1 -8 3 -5 6 6 6 11 1 17 -2 13
-5z m-427 -170 c0 -8 -7 -14 -15 -14 -15 0 -21 21 -9 33 10 9 24 -2 24 -19z
m-190 1 c0 -8 -9 -15 -20 -15 -11 0 -20 7 -20 15 0 8 9 15 20 15 11 0 20 -7
20 -15z m80 -155 c0 -13 7 -20 20 -20 18 0 20 -7 20 -75 0 -68 -2 -75 -20 -75
-13 0 -20 -7 -20 -20 0 -18 -7 -20 -80 -20 -73 0 -80 2 -80 20 0 13 -7 20 -20
20 -18 0 -20 7 -20 75 0 68 2 75 20 75 13 0 20 7 20 20 0 18 7 20 80 20 73 0
80 -2 80 -20z m-610 -187 c7 -6 -23 -56 -36 -60 -12 -4 -23 44 -16 66 3 10 38
7 52 -6z m1118 -25 c2 -29 -1 -38 -12 -38 -18 0 -36 30 -36 60 0 16 5 21 23
18 18 -2 23 -10 25 -40z m-740 -415 l3 -133 -81 0 -80 0 0 94 c0 86 2 95 20
101 11 3 20 12 20 20 0 7 9 15 20 18 11 3 20 13 20 22 0 13 8 16 38 13 l37 -3
3 -132z m385 120 c-2 -7 6 -13 17 -13 18 0 25 -10 21 -32 0 -5 8 -8 19 -8 19
0 20 -7 20 -100 l0 -100 -96 0 -96 0 7 33 c4 17 9 68 11 112 7 125 7 127 57
123 27 -2 41 -7 40 -15z m-1523 -73 c0 -17 7 -20 40 -20 33 0 40 -3 40 -20 0
-17 7 -20 40 -20 33 0 40 -3 40 -20 0 -16 7 -20 35 -20 28 0 35 -4 35 -20 0
-16 -7 -20 -35 -20 -28 0 -35 4 -35 20 0 17 -7 20 -40 20 -33 0 -40 3 -40 20
0 17 -7 20 -40 20 -33 0 -40 3 -40 20 0 17 -7 20 -40 20 -27 0 -40 4 -40 13 0
21 11 27 47 27 26 0 33 -4 33 -20z m2658 -2 c3 -15 -4 -18 -37 -18 -34 0 -41
-3 -41 -20 0 -17 -7 -20 -40 -20 -33 0 -40 -3 -40 -20 0 -17 -7 -20 -40 -20
-33 0 -40 -3 -40 -20 0 -16 -7 -20 -35 -20 -28 0 -35 4 -35 20 0 16 7 20 35
20 28 0 35 4 35 20 0 17 7 20 41 20 37 0 41 2 37 23 -4 20 -1 22 39 18 38 -3
43 -1 43 19 0 18 5 21 37 18 27 -2 39 -8 41 -20z m-2348 -158 c0 -16 -7 -20
-35 -20 -28 0 -35 4 -35 20 0 16 7 20 35 20 28 0 35 -4 35 -20z m470 0 c0 -13
7 -20 20 -20 13 0 20 -7 20 -20 0 -19 7 -20 175 -20 168 0 175 -1 175 -20 0
-19 7 -20 120 -20 113 0 120 1 120 20 0 19 7 20 175 20 168 0 175 1 175 20 0
13 7 20 20 20 13 0 20 7 20 20 0 13 7 20 20 20 13 0 20 -7 20 -20 0 -13 -7
-20 -20 -20 -13 0 -20 -7 -20 -20 0 -13 -7 -20 -20 -20 -13 0 -20 -7 -20 -20
0 -19 -7 -20 -174 -20 -165 0 -174 -1 -179 -20 -5 -18 -14 -20 -117 -20 -103
0 -112 2 -117 20 -5 19 -14 20 -179 20 -167 0 -174 1 -174 20 0 13 -7 20 -20
20 -13 0 -20 7 -20 20 0 13 -7 20 -20 20 -13 0 -20 7 -20 20 0 13 7 20 20 20
13 0 20 -7 20 -20z m1560 0 c0 -16 -7 -20 -35 -20 -28 0 -35 4 -35 20 0 16 7
20 35 20 28 0 35 -4 35 -20z"/>
<path d="M2460 1930 c0 -13 -7 -20 -20 -20 -16 0 -20 -7 -20 -35 0 -28 4 -35
20 -35 13 0 20 -7 20 -20 0 -17 7 -20 40 -20 33 0 40 3 40 20 0 13 7 20 20 20
16 0 20 7 20 35 0 28 -4 35 -20 35 -13 0 -20 -7 -20 -20 0 -13 -7 -20 -20 -20
-11 0 -20 -7 -20 -15 0 -8 -9 -15 -20 -15 -13 0 -20 7 -20 20 0 13 7 20 19 20
10 0 21 9 24 20 3 11 11 19 18 18 7 -2 15 5 17 15 3 14 -4 17 -37 17 -34 0
-41 -3 -41 -20z"/>
</g>
</svg>
